HIERARCHY
ROOT Hips
{
  OFFSET 0 0.240689 0
  CHANNELS 6 Xposition Yposition Zposition Zrotation Xrotation Yrotation
  JOINT Bip01_Spine0
  {
    OFFSET 0 -24.7459 49.7988
    CHANNELS 6 Xposition Yposition Zposition Zrotation Xrotation Yrotation
    JOINT Bip01_Pelvis
    {
      OFFSET 0 0 0
      CHANNELS 6 Xposition Yposition Zposition Zrotation Xrotation Yrotation
      JOINT Bip01_Spine0_Tail
      {
        OFFSET -6.47486 -3.86022 0
        CHANNELS 6 Xposition Yposition Zposition Zrotation Xrotation Yrotation
        JOINT Bip01_Spine0_Tail1
        {
          OFFSET 10.3837 -0.00825882 0
          CHANNELS 6 Xposition Yposition Zposition Zrotation Xrotation Yrotation
          JOINT Bip01_Spine0_Tail2
          {
            OFFSET 10.3837 -0.00826263 0
            CHANNELS 6 Xposition Yposition Zposition Zrotation Xrotation Yrotation
            JOINT Bip01_Spine0_Tail3
            {
              OFFSET 10.3837 -0.00825882 0
              CHANNELS 6 Xposition Yposition Zposition Zrotation Xrotation Yrotation
              JOINT Bip01_Spine0_Tail4
              {
                OFFSET 10.3837 -0.00826263 0
                CHANNELS 6 Xposition Yposition Zposition Zrotation Xrotation Yrotation
                End Site
                {
                  OFFSET 0 0 0
                }
              }
            }
          }
        }
      }
      JOINT Bip01_R_Thigh
      {
        OFFSET 0 -1.52588e-005 -8.75617
        CHANNELS 6 Xposition Yposition Zposition Zrotation Xrotation Yrotation
        JOINT Bip01_R_Calf
        {
          OFFSET 19.7638 0 0
          CHANNELS 6 Xposition Yposition Zposition Zrotation Xrotation Yrotation
          JOINT Bip01_R_Foot
          {
            OFFSET 18.6534 0 0
            CHANNELS 6 Xposition Yposition Zposition Zrotation Xrotation Yrotation
            JOINT Bip01_R_Toe0
            {
              OFFSET 5.09145 13.9567 0
              CHANNELS 6 Xposition Yposition Zposition Zrotation Xrotation Yrotation
              JOINT Bip01_R_Toe01
              {
                OFFSET 4.28803 0 0
                CHANNELS 6 Xposition Yposition Zposition Zrotation Xrotation Yrotation
                JOINT Bip01_R_Toe02
                {
                  OFFSET 3.85801 0 0
                  CHANNELS 6 Xposition Yposition Zposition Zrotation Xrotation Yrotation
                  End Site
                  {
                    OFFSET 0 0 0
                  }
                }
              }
            }
          }
        }
      }
      JOINT Bip01_L_Thigh
      {
        OFFSET 0 1.52588e-005 8.75617
        CHANNELS 6 Xposition Yposition Zposition Zrotation Xrotation Yrotation
        JOINT Bip01_L_Calf
        {
          OFFSET 19.7638 0 0
          CHANNELS 6 Xposition Yposition Zposition Zrotation Xrotation Yrotation
          JOINT Bip01_L_Foot
          {
            OFFSET 18.6534 0 0
            CHANNELS 6 Xposition Yposition Zposition Zrotation Xrotation Yrotation
            JOINT Bip01_L_Toe0
            {
              OFFSET 5.09144 13.9567 0
              CHANNELS 6 Xposition Yposition Zposition Zrotation Xrotation Yrotation
              JOINT Bip01_L_Toe01
              {
                OFFSET 4.28802 0 0
                CHANNELS 6 Xposition Yposition Zposition Zrotation Xrotation Yrotation
                JOINT Bip01_L_Toe02
                {
                  OFFSET 3.85801 0 0
                  CHANNELS 6 Xposition Yposition Zposition Zrotation Xrotation Yrotation
                  End Site
                  {
                    OFFSET 0 0 0
                  }
                }
              }
            }
          }
        }
      }
      JOINT Bip01_Spine
      {
        OFFSET 9.14835 -0.00640869 -1.1e-005
        CHANNELS 6 Xposition Yposition Zposition Zrotation Xrotation Yrotation
        JOINT Bip01_Spine1
        {
          OFFSET 8.04366 -0.00638199 0
          CHANNELS 6 Xposition Yposition Zposition Zrotation Xrotation Yrotation
          JOINT Bip01_Spine2
          {
            OFFSET 8.04367 -0.00639343 0
            CHANNELS 6 Xposition Yposition Zposition Zrotation Xrotation Yrotation
            JOINT Bip01_Spine3
            {
              OFFSET 8.04304 -0.00831222 0
              CHANNELS 6 Xposition Yposition Zposition Zrotation Xrotation Yrotation
              JOINT Bip01_Neck
              {
                OFFSET 10.6685 1.06813 0
                CHANNELS 6 Xposition Yposition Zposition Zrotation Xrotation Yrotation
                JOINT Bip01_R_Clavicle
                {
                  OFFSET -3.21661 -4.89635 -9.04802
                  CHANNELS 6 Xposition Yposition Zposition Zrotation Xrotation Yrotation
                  JOINT Bip01_R_UpperArm
                  {
                    OFFSET 19.0492 0 0
                    CHANNELS 6 Xposition Yposition Zposition Zrotation Xrotation Yrotation
                    JOINT Bip01_R_Forearm
                    {
                      OFFSET 10.3706 0 0
                      CHANNELS 6 Xposition Yposition Zposition Zrotation Xrotation Yrotation
                      JOINT Bip01_R_Hand
                      {
                        OFFSET 22.8632 0 0
                        CHANNELS 6 Xposition Yposition Zposition Zrotation Xrotation Yrotation
                        JOINT Bip01_R_Finger0
                        {
                          OFFSET 6.48259 0.103651 0.504496
                          CHANNELS 6 Xposition Yposition Zposition Zrotation Xrotation Yrotation
                          JOINT Bip01_R_Finger01
                          {
                            OFFSET 3.66847 0 0
                            CHANNELS 6 Xposition Yposition Zposition Zrotation Xrotation Yrotation
                            End Site
                            {
                              OFFSET 0 0 0
                            }
                          }
                        }
                      }
                    }
                  }
                }
                JOINT Bip01_L_Clavicle
                {
                  OFFSET -3.21661 -4.89641 9.04797
                  CHANNELS 6 Xposition Yposition Zposition Zrotation Xrotation Yrotation
                  JOINT Bip01_L_UpperArm
                  {
                    OFFSET 19.0492 0 0
                    CHANNELS 6 Xposition Yposition Zposition Zrotation Xrotation Yrotation
                    JOINT Bip01_L_Forearm
                    {
                      OFFSET 10.3706 0 0
                      CHANNELS 6 Xposition Yposition Zposition Zrotation Xrotation Yrotation
                      JOINT Bip01_L_Hand
                      {
                        OFFSET 22.8631 0 0
                        CHANNELS 6 Xposition Yposition Zposition Zrotation Xrotation Yrotation
                        JOINT Bip01_L_Finger0
                        {
                          OFFSET 6.48257 0.103655 -0.504492
                          CHANNELS 6 Xposition Yposition Zposition Zrotation Xrotation Yrotation
                          JOINT Bip01_L_Finger01
                          {
                            OFFSET 3.66844 0 0
                            CHANNELS 6 Xposition Yposition Zposition Zrotation Xrotation Yrotation
                            End Site
                            {
                              OFFSET 0 0 0
                            }
                          }
                        }
                      }
                    }
                  }
                }
                JOINT Bip01_Neck1
                {
                  OFFSET 7.52459 -0.00656509 0
                  CHANNELS 6 Xposition Yposition Zposition Zrotation Xrotation Yrotation
                  JOINT Bip01_Neck2
                  {
                    OFFSET 8.4783 -0.00588226 0
                    CHANNELS 6 Xposition Yposition Zposition Zrotation Xrotation Yrotation
                    JOINT Bip01_Head
                    {
                      OFFSET 8.41606 0 0
                      CHANNELS 6 Xposition Yposition Zposition Zrotation Xrotation Yrotation
                      JOINT EyesBlue
                      {
                        OFFSET 0 0 0
                        CHANNELS 6 Xposition Yposition Zposition Zrotation Xrotation Yrotation
                        JOINT EyesBlue_2
                        {
                          OFFSET 0 -0.500007 0
                          CHANNELS 6 Xposition Yposition Zposition Zrotation Xrotation Yrotation
                          End Site
                          {
                            OFFSET 0 0 0
                          }
                        }
                      }
                      JOINT Bip01_Head2_Eyeleds
                      {
                        OFFSET 6.52751 7.61746 2.2e-005
                        CHANNELS 6 Xposition Yposition Zposition Zrotation Xrotation Yrotation
                        End Site
                        {
                          OFFSET 0 0 0
                        }
                      }
                      JOINT Bip01_Head_Muzzle
                      {
                        OFFSET 2.88628 13.9448 3.88994
                        CHANNELS 6 Xposition Yposition Zposition Zrotation Xrotation Yrotation
                        End Site
                        {
                          OFFSET 0 0 0
                        }
                      }
                      JOINT Bip01_Head1_Jaw
                      {
                        OFFSET 0.271065 1.32405 0
                        CHANNELS 6 Xposition Yposition Zposition Zrotation Xrotation Yrotation
                        JOINT _Bip01_Head11_TungeControler
                        {
                          OFFSET 4.61616 5.82872 0
                          CHANNELS 6 Xposition Yposition Zposition Zrotation Xrotation Yrotation
                          JOINT _Bip01_Ponytail3_tunge
                          {
                            OFFSET 5.17785 2.98805 0
                            CHANNELS 6 Xposition Yposition Zposition Zrotation Xrotation Yrotation
                            JOINT Bip01_Ponytail31
                            {
                              OFFSET 5.57569 0 0
                              CHANNELS 6 Xposition Yposition Zposition Zrotation Xrotation Yrotation
                              JOINT Bip01_Ponytail32
                              {
                                OFFSET 2.93165 0 0
                                CHANNELS 6 Xposition Yposition Zposition Zrotation Xrotation Yrotation
                                JOINT Bip01_Ponytail3Nub
                                {
                                  OFFSET 3.30155 0 0
                                  CHANNELS 6 Xposition Yposition Zposition Zrotation Xrotation Yrotation
                                  End Site
                                  {
                                    OFFSET 0 0 0
                                  }
                                }
                              }
                            }
                          }
                        }
                        JOINT Bip01_Head_JawNub
                        {
                          OFFSET 15.5776 -0.000389099 0
                          CHANNELS 6 Xposition Yposition Zposition Zrotation Xrotation Yrotation
                          End Site
                          {
                            OFFSET 0 0 0
                          }
                        }
                      }
                      JOINT Bip01_Ponytail2
                      {
                        OFFSET 9.40334 1.03973 -6.51764
                        CHANNELS 6 Xposition Yposition Zposition Zrotation Xrotation Yrotation
                        JOINT Bip01_Ponytail21
                        {
                          OFFSET 2.77018 -0.00640106 1.33514e-005
                          CHANNELS 6 Xposition Yposition Zposition Zrotation Xrotation Yrotation
                          End Site
                          {
                            OFFSET 0 0 0
                          }
                        }
                      }
                      JOINT Bip01_Ponytail1
                      {
                        OFFSET 9.40368 1.03969 6.51768
                        CHANNELS 6 Xposition Yposition Zposition Zrotation Xrotation Yrotation
                        JOINT Bip01_Ponytail11
                        {
                          OFFSET 2.77018 -0.00640487 0
                          CHANNELS 6 Xposition Yposition Zposition Zrotation Xrotation Yrotation
                          End Site
                          {
                            OFFSET 0 0 0
                          }
                        }
                      }
                    }
                  }
                }
              }
            }
          }
        }
      }
    }
  }
}
MOTION
Frames:	4
Frame Time:	0.0333333
4.20943 0 -48.869 -0 -90 -0 0.000992 -28.7005 44.8858 90.0009 -0.000380097 100.962 0 0 0 -90 -3.50835e-015 -90 -6.47435 -3.86247 -7.4e-005 123.961 0.00206928 -0.000615223 8.89585 -0.008029 0.000125 -7.66486 0.000532 0.000609 10.2239 -0.007656 3e-006 8.38331 0.000317 0.000274 9.85422 -0.006027 0.000142 19.1993 0.002635 0.001873 8.04663 -0.005508 2.1e-005 28.6999 0.003083 0.001827 1.1e-005 -1.1e-005 -8.75617 -111.878 -3.73278 159.944 19.7638 1e-006 0 -73.1409 -0.000141935 -0.00100247 18.6534 -1e-006 -1e-006 -1.26802 -2.29959 1.51397 5.09143 13.9567 -2.37573e-007 115.644 10.3621 7.90904 4.28801 1e-006 7.10543e-015 42.0011 0.00234924 0.00103098 3.85803 -1.3e-005 1.00001e-006 -45 -3.02506e-005 -1.56959e-005 -1.1e-005 1.1e-005 8.75617 -130.962 1.42541 -161.734 19.7638 2e-006 -1.77636e-015 -74.9676 0.000484001 0.003673 18.6534 3e-006 -1e-006 10.6677 1.48273 2.40739 5.09144 13.9567 -3.64532e-007 86.6437 -10.3585 -7.91013 4.288 -7.10543e-015 0 42 -4.61076e-006 1.36253e-006 3.85799 1e-006 5.15143e-014 -2.5 -1.53814e-005 -6.19627e-007 9.14765 -0.006229 1.3e-005 -4.9535 0.000662 0.000722 8.04405 -0.006286 0.000104 4.50141 0.001548 0.001431 8.04449 -0.006294 9.6e-005 7.97421 0.001455 0.001266 8.04236 -0.00814 8.8e-005 -8.31088 0.000843002 0.000975 10.6696 1.06804 0.000163 -2.6617 0.001691 0.001771 -4.0649 -4.21981 -9.04791 -177.386 -74.4167 129.498 19.0492 3.55271e-015 1e-006 88.8174 -0.760148 -107.17 10.3706 0 5.32907e-015 -114.092 0.000857622 -0.00402943 22.8631 -7.10543e-015 -1e-006 -10.3775 14.9655 -9.90748 6.48256 0.103653 0.504497 -28.8495 -12.0842 -9.77563 3.66843 1.00453e-012 1e-006 40.107 -4.20942e-005 4.11293e-005 -4.06463 -4.21967 9.04798 -177.385 74.4178 -129.497 19.0492 7.10543e-015 3e-006 88.7905 0.789433 107.125 10.3706 5.32907e-015 0 -114.599 0.000844096 -0.00385133 22.8631 -3.55271e-014 0 -8.63909 -11.9163 11.1037 6.48256 0.103651 -0.504496 -28.8506 12.085 9.77752 3.66843 -1e-006 -9.99998e-007 40.107 -5.37433e-005 4.97811e-005 7.52715 -0.006637 3.6e-005 9.50155 0.000659997 0.000559001 8.47204 -0.005992 9e-005 -26.0001 0.00158899 0.002543 8.41605 1e-006 -2.66454e-015 -93.4943 -0.000137683 0.00433166 -5e-006 3e-006 -3e-006 -23.1098 1.37701e-015 90 -1.38324e-009 -0.5 3.8147e-006 -180 90 -90 0 0 0 -99.049 -7.01671e-015 -180 5.47722 13.499 3.88993 -22.989 1.37021e-015 90 0 0 0 -85.3358 -7.01671e-015 -180 0 0 0 -162.289 1.6478e-005 -5.26155e-006 0 0 0 170.24 -2.71539e-005 1.28868e-005 0 0 0 1.83152 3.72384e-010 -1.1813e-010 0 0 0 -17.5999 4.40743e-009 0.00831979 0 0 0 -26.2444 0.00367527 -0.00746302 15.5776 -0.000396 -7e-006 -3.18055e-015 -2.13538e-018 -0 9.40574 1.0412 -6.51589 70.3396 -28.9454 146.583 2.76729 -0.00311 -0.004932 -39.6024 50.8648 39.8749 9.40607 1.04114 6.51588 70.339 28.9458 -146.584 2.76729 -0.003108 0.004985 -39.6001 -50.8665 -39.8697 
4.20943 0 -48.869 -0 -90 -0 1.43782 -28.7005 45.7213 93.2641 -0.846623 101.743 0 0 0 -89.9997 -7.74413e-006 -91.3219 -6.47194 -3.86247 0.156167 125.184 1.13186 -0.797057 8.89585 -0.008029 0.000125 -7.60467 0.00053264 0.000608441 10.2239 -0.007656 3e-006 4.90784 0.000299807 0.000292713 9.85422 -0.006027 0.000142 15.5691 0.00251112 0.00203608 8.04663 -0.005508 2.1e-005 25.0697 0.00296113 0.00201854 1.1e-005 -1.1e-005 -8.75617 -117.266 -2.94701 158.998 19.7638 1e-006 -3.55271e-015 -81.1191 -8.30509e-005 -0.000999958 18.6534 -1e-006 -1e-006 6.92302 -2.16478 1.75541 5.09143 13.9567 -6.47344e-008 108.64 9.32713 9.0952 4.28801 1e-006 2.84217e-014 36.8248 0.00231172 0.00123473 3.85803 -1.3e-005 1.00002e-006 -45 -7.66656e-005 -6.05944e-005 -1.1e-005 1.1e-005 8.75617 -135.621 2.68016 -160.661 19.7638 2e-006 -1.77636e-015 -77.3215 0.000406957 0.00367308 18.6534 3e-006 -1e-006 4.96954 9.67905 7.25154 5.09144 13.9567 -1.75856e-006 92.5238 -9.50788 -4.20276 4.288 7.10543e-015 -3.55271e-015 42 -1.70462e-005 5.04724e-006 3.85799 1e-006 2.06057e-013 -2.5 -1.02125e-005 -2.55702e-007 9.14414 -0.006229 -0.220708 -4.95871 -0.288901 2.38902 8.04405 -0.006286 0.000104 4.50103 -0.0185804 0.919106 8.04449 -0.006294 9.6e-005 7.97518 -0.0263955 0.971928 8.04236 -0.00814 8.80001e-005 -8.31107 -0.0301726 0.646145 10.6696 1.06804 0.000162971 -4.5392 0.00163317 0.00182533 -3.92363 -4.34993 -9.04791 -175.505 -74.4164 129.501 19.0492 -1.06581e-014 1e-006 85.307 -10.0222 -105.058 10.3706 0 1.06581e-014 -130.53 0.00153063 -0.00398784 22.8631 2.84217e-014 -1e-006 -0.874168 16.4627 -2.48722 6.48256 0.103653 0.504497 -6.16092 -14.6597 -4.33095 3.66843 -1.06581e-013 1e-006 40.107 1.20815e-005 9.52509e-008 -3.92341 -4.3498 9.04798 -175.473 70.8783 -129.542 19.0492 4.9738e-014 3e-006 84.9525 4.54253 107.278 10.3706 -3.55271e-015 -3.55271e-015 -116.446 0.000915538 -0.00385415 22.8631 -7.10543e-015 3.55271e-015 -13.4003 -9.81132 2.84057 6.48256 0.103651 -0.504496 -28.8505 12.0847 9.77751 3.66843 -9.99997e-007 -1e-006 40.107 0.000186787 -0.000152427 7.52715 -0.006637 3.60003e-005 8.46126 0.11239 1.41434 8.47204 -0.005992 9.00002e-005 -25.4268 -1.71223 2.87331 8.41605 1e-006 6.75016e-014 -91.1777 0.712266 1.19438 -5e-006 3e-006 -3e-006 -23.1098 1.37701e-015 90 2.99617e-009 -0.5 3.81456e-006 180 90 -90 0 0 0 -99.8126 7.01671e-015 -180 5.69263 13.5192 3.88993 -22.989 1.37021e-015 90 0 0 0 -85.3358 -7.01671e-015 -180 0 0 0 -162.289 1.38407e-005 -3.88693e-006 0 0 0 170.24 -2.81049e-005 1.31694e-005 0 0 0 1.83152 2.45011e-007 -8.30221e-008 0 0 0 -17.65 3.88835e-006 7.12919e-007 0 0 0 -26.1943 7.65186e-008 -7.27334e-007 15.5776 -0.000396 -7.00003e-006 0 2.98177e-016 -0 9.40574 1.0412 -6.51589 69.009 -30.0018 143.15 2.76729 -0.00311 -0.004932 -31.1343 43.114 33.6708 9.40607 1.04114 6.51588 69.0083 30.0021 -143.149 2.76729 -0.003108 0.004985 -31.1312 -43.1154 -33.6658 
4.20943 0 -48.869 -0 -90 -0 3.0558 -28.7005 46.5923 96.947 -1.68666 103.025 0 0 0 -89.9999 -2.07517e-005 -92.784 -6.46494 -3.86247 0.331978 126.377 2.36935 -1.74355 8.89585 -0.008029 0.000125 -7.4825 0.000533936 0.000607304 10.2239 -0.007656 3e-006 1.13738 0.000279909 0.000311795 9.85422 -0.006027 0.000142 11.481 0.00235958 0.00220992 8.04663 -0.005508 2.1e-005 20.9816 0.0028097 0.0022245 1.1e-005 -1.1e-005 -8.75617 -122.667 -2.22905 158.058 19.7638 1e-006 1.06581e-014 -89.045 6.21474e-007 -0.001001 18.6534 -1e-006 -1e-006 14.9373 -1.90491 1.93064 5.09143 13.9567 3.17604e-008 94.6569 6.75095 10.9591 4.28801 1e-006 4.61853e-014 26.3552 0.00194873 0.00161659 3.85803 -1.3e-005 9.99999e-007 -45 -4.28317e-006 1.17093e-005 -1.1e-005 1.1e-005 8.75617 -143.362 3.64977 -160.852 19.7638 2e-006 0 -79.7378 0.000328019 0.00367316 18.6534 3e-006 -1e-006 -9.32829 13.6741 16.2526 5.09144 13.9567 -3.47791e-006 103.186 -8.83507 -1.07716 4.288 -3.55271e-015 2.66453e-015 42 -2.88252e-005 8.29438e-006 3.85799 1e-006 3.4639e-013 -2.5 -6.35348e-006 1.00783e-007 9.13418 -0.006229 -0.469035 -4.94813 -0.773669 5.00119 8.04405 -0.006286 0.000104 4.50192 -0.0586029 1.94962 8.04449 -0.006294 9.6e-005 7.9758 -0.0826127 2.05947 8.04236 -0.00814 8.80002e-005 -8.31102 -0.0946263 1.38471 10.6696 1.06804 0.000162945 -6.5255 0.00157143 0.00188058 -3.7699 -4.48291 -9.04791 -173.52 -74.4167 129.5 19.0492 -3.55271e-015 1e-006 79.3944 -6.19907 -103.05 10.3706 1.06581e-014 -7.10542e-015 -131.501 0.001578 -0.00398234 22.8631 1.42109e-014 -1e-006 0.561074 15.724 5.59647 6.48256 0.103653 0.504497 0.846077 -15.2783 -2.59502 3.66843 7.10543e-015 1e-006 40.107 9.55915e-006 4.00637e-006 -3.76969 -4.48277 9.04798 -173.502 67.3195 -129.536 19.0492 7.10543e-014 3e-006 80.2875 7.7509 108.959 10.3706 -3.55271e-015 -7.9936e-015 -119.24 0.00102724 -0.00385636 22.8631 -7.10543e-015 -1.77636e-015 -16.8346 -7.80142 -0.0736654 6.48256 0.103651 -0.504496 -28.8505 12.0847 9.77752 3.66843 -9.99997e-007 -1e-006 40.107 0.000168646 -0.000135978 7.52715 -0.006637 3.60008e-005 7.23052 0.216954 2.88016 8.47204 -0.005992 9.00004e-005 -24.9159 -3.64534 6.21708 8.41605 1e-006 8.34888e-014 -88.8508 1.66104 1.93946 -5e-006 3e-006 -3e-006 -23.1098 1.37701e-015 90 7.54488e-009 -0.5 3.81412e-006 180 90 -90 0 0 0 -100.576 7.01671e-015 -180 5.90804 13.5394 3.88993 -22.989 1.37021e-015 90 0 0 0 -85.3358 -7.01671e-015 -180 0 0 0 -162.289 1.44602e-005 -3.55558e-006 0 0 0 170.24 -2.85765e-005 1.34504e-005 0 0 0 1.83152 3.10141e-007 -1.50291e-007 0 0 0 -17.65 5.21091e-006 1.33101e-006 0 0 0 -26.1943 2.07261e-006 -4.53648e-007 15.5776 -0.000396 -7.00004e-006 -0 -1.98785e-016 -0 9.40574 1.0412 -6.51589 67.5045 -31.0402 139.446 2.76729 -0.00311 -0.004932 -24.2899 34.3931 29.3792 9.40607 1.04114 6.51588 67.5056 31.0406 -139.447 2.76729 -0.003108 0.004985 -24.2868 -34.393 -29.3737 
4.20943 0 -48.869 -0 -90 -0 4.74682 -28.7005 47.1213 100.811 -2.45846 104.593 0 0 0 -89.9999 -2.08607e-005 -94.3559 -6.45274 -3.86247 0.51538 127.538 3.62553 -2.78096 8.89585 -0.008029 0.000125 -7.32567 0.000535596 0.00060584 10.2239 -0.007656 3e-006 -2.72552 0.000258268 0.000329944 9.85422 -0.006027 0.000142 7.21021 0.00218845 0.0023795 8.04663 -0.005508 2.1e-005 16.7111 0.00263625 0.00242755 1.1e-005 -1.1e-005 -8.75617 -128.04 -1.26601 156.87 19.7638 1e-006 7.10543e-015 -97.173 6.1956e-005 -0.00100101 18.6534 -1e-006 -1e-006 23.3228 -1.75228 2.16364 5.09143 13.9567 8.6241e-008 79.2317 3.58374 12.3401 4.28801 1e-006 2.84217e-014 14.7156 0.00158535 0.00197797 3.85803 -1.3e-005 9.99999e-007 -45 -6.66147e-006 9.22786e-006 -1.1e-005 1.1e-005 8.75617 -149.97 5.35953 -161.413 19.7638 2e-006 7.10543e-015 -81.6765 0.000265188 0.00367314 18.6534 3e-006 -1e-006 -21.063 15.006 26.4924 5.09144 13.9567 -5.51514e-006 111.429 -8.54448 1.35628 4.288 -3.55271e-015 1.77636e-015 42 -4.14009e-005 1.1114e-005 3.85799 1e-006 5.09814e-013 -2.5 -3.20816e-006 5.12734e-007 9.11682 -0.006229 -0.728089 -4.90183 -1.36 7.68972 8.04405 -0.006286 0.000104 4.50461 -0.109762 3.02343 8.04449 -0.006294 9.6e-005 7.97999 -0.154555 3.19078 8.04236 -0.00814 8.80003e-005 -8.31013 -0.177235 2.16148 10.6696 1.06804 0.000162922 -8.53253 0.00150918 0.00193405 -3.61019 -4.61201 -9.04791 -171.513 -74.4165 129.5 19.0492 2.84217e-014 1e-006 69.8917 10.0006 -107.52 10.3706 -1.06581e-014 8.88178e-015 -113.835 0.000856061 -0.00402825 22.8631 7.10543e-015 -1e-006 -6.84642 10.6054 13.5885 6.48256 0.103653 0.504497 -10.75 -14.1871 -5.47012 3.66843 -3.19744e-014 1e-006 40.107 1.30327e-005 1.98614e-006 -3.61005 -4.61187 9.04798 -171.467 63.7192 -129.627 19.0492 8.17124e-014 3e-006 73.2311 10.7749 112.8 10.3706 8.88179e-015 -2.66453e-015 -123.831 0.00121551 -0.00385701 22.8631 0 1.06581e-014 -19.0215 -5.71137 3.1528 6.48256 0.103651 -0.504496 -28.8505 12.0849 9.77752 3.66843 -1e-006 -1e-006 40.107 4.7853e-005 -3.17946e-005 7.52715 -0.006637 3.60014e-005 5.91078 0.299063 4.34472 8.47204 -0.005992 9.00007e-005 -24.3829 -5.65424 9.78275 8.41605 1e-006 7.81597e-014 -86.5784 2.7873 2.20281 -5e-006 3e-006 -3e-006 -23.1098 1.37701e-015 90 1.16419e-008 -0.5 3.81339e-006 180 90 -90 0 0 0 -101.34 7.01671e-015 -180 6.12344 13.5595 3.88993 -22.989 1.37021e-015 90 0 0 0 -85.3358 -7.01671e-015 -180 0 0 0 -162.289 1.62535e-005 -3.73312e-006 0 0 0 170.24 -2.83245e-005 1.36601e-005 0 0 0 1.83152 1.71171e-007 -1.81209e-007 0 0 0 -17.65 5.6778e-006 1.6663e-006 0 0 0 -26.1943 3.61096e-006 -1.94583e-007 15.5776 -0.000396 -7.00004e-006 -7.95139e-016 2.18663e-015 1.59028e-015 9.40574 1.0412 -6.51589 65.8881 -31.9979 135.631 2.76729 -0.00311 -0.004932 -18.7108 25.2708 26.6018 9.40607 1.04114 6.51588 65.8899 31.9982 -135.633 2.76729 -0.003108 0.004985 -18.7091 -25.2695 -26.5973 
